<mxfile host="app.diagrams.net" agent="Mozilla/5.0 (Windows NT 10.0; Win64; x64) AppleWebKit/537.36 (KHTML, like Gecko) Chrome/128.0.0.0 YaBrowser/24.10.0.0 Safari/537.36" version="25.0.3">
  <diagram name="Страница — 1" id="om9Jui_Wx558SvwjKtsf">
    <mxGraphModel dx="1615" dy="872" grid="1" gridSize="10" guides="1" tooltips="1" connect="1" arrows="1" fold="1" page="1" pageScale="1" pageWidth="1654" pageHeight="1169" math="0" shadow="0">
      <root>
        <mxCell id="0" />
        <mxCell id="1" parent="0" />
        <mxCell id="iZ19sdAexcQzZhLgs3-3-1" value="" style="endArrow=none;html=1;fontFamily=Times New Roman;" edge="1" parent="1">
          <mxGeometry width="50" height="50" relative="1" as="geometry">
            <mxPoint x="40" y="40" as="sourcePoint" />
            <mxPoint x="40" y="760" as="targetPoint" />
          </mxGeometry>
        </mxCell>
        <mxCell id="iZ19sdAexcQzZhLgs3-3-2" value="" style="endArrow=none;html=1;fontFamily=Times New Roman;" edge="1" parent="1">
          <mxGeometry width="50" height="50" relative="1" as="geometry">
            <mxPoint x="1120" y="40" as="sourcePoint" />
            <mxPoint x="1120" y="760" as="targetPoint" />
          </mxGeometry>
        </mxCell>
        <mxCell id="iZ19sdAexcQzZhLgs3-3-3" value="" style="endArrow=none;html=1;fontFamily=Times New Roman;" edge="1" parent="1">
          <mxGeometry width="50" height="50" relative="1" as="geometry">
            <mxPoint x="40" y="760" as="sourcePoint" />
            <mxPoint x="1120" y="760" as="targetPoint" />
          </mxGeometry>
        </mxCell>
        <mxCell id="iZ19sdAexcQzZhLgs3-3-4" value="" style="endArrow=none;html=1;fontFamily=Times New Roman;" edge="1" parent="1">
          <mxGeometry width="50" height="50" relative="1" as="geometry">
            <mxPoint x="30" y="30" as="sourcePoint" />
            <mxPoint x="30" y="770" as="targetPoint" />
          </mxGeometry>
        </mxCell>
        <mxCell id="iZ19sdAexcQzZhLgs3-3-5" value="" style="endArrow=none;html=1;fontFamily=Times New Roman;" edge="1" parent="1">
          <mxGeometry width="50" height="50" relative="1" as="geometry">
            <mxPoint x="1130" y="30" as="sourcePoint" />
            <mxPoint x="1130" y="770" as="targetPoint" />
          </mxGeometry>
        </mxCell>
        <mxCell id="iZ19sdAexcQzZhLgs3-3-6" value="" style="endArrow=none;html=1;fontFamily=Times New Roman;" edge="1" parent="1">
          <mxGeometry width="50" height="50" relative="1" as="geometry">
            <mxPoint x="30" y="770" as="sourcePoint" />
            <mxPoint x="1130" y="770" as="targetPoint" />
          </mxGeometry>
        </mxCell>
        <mxCell id="iZ19sdAexcQzZhLgs3-3-7" value="" style="endArrow=none;html=1;fontFamily=Times New Roman;" edge="1" parent="1">
          <mxGeometry width="50" height="50" relative="1" as="geometry">
            <mxPoint x="40" y="720" as="sourcePoint" />
            <mxPoint x="1120" y="720" as="targetPoint" />
          </mxGeometry>
        </mxCell>
        <mxCell id="iZ19sdAexcQzZhLgs3-3-8" value="" style="endArrow=none;html=1;fontFamily=Times New Roman;" edge="1" parent="1">
          <mxGeometry width="50" height="50" relative="1" as="geometry">
            <mxPoint x="200" y="720" as="sourcePoint" />
            <mxPoint x="200" y="760" as="targetPoint" />
          </mxGeometry>
        </mxCell>
        <mxCell id="iZ19sdAexcQzZhLgs3-3-9" value="" style="endArrow=none;html=1;fontFamily=Times New Roman;" edge="1" parent="1">
          <mxGeometry width="50" height="50" relative="1" as="geometry">
            <mxPoint x="840" y="720" as="sourcePoint" />
            <mxPoint x="840" y="760" as="targetPoint" />
          </mxGeometry>
        </mxCell>
        <mxCell id="iZ19sdAexcQzZhLgs3-3-10" value="&lt;font style=&quot;font-size: 14px&quot;&gt;Узел:&lt;br&gt;&lt;/font&gt;" style="text;html=1;strokeColor=none;fillColor=none;align=left;verticalAlign=middle;whiteSpace=wrap;rounded=0;fontFamily=Times New Roman;" vertex="1" parent="1">
          <mxGeometry x="40" y="720" width="160" height="20" as="geometry" />
        </mxCell>
        <mxCell id="iZ19sdAexcQzZhLgs3-3-11" value="&lt;font style=&quot;font-size: 14px&quot;&gt;Заголовок:&lt;br&gt;&lt;/font&gt;" style="text;html=1;strokeColor=none;fillColor=none;align=left;verticalAlign=middle;whiteSpace=wrap;rounded=0;fontFamily=Times New Roman;" vertex="1" parent="1">
          <mxGeometry x="200" y="720" width="160" height="20" as="geometry" />
        </mxCell>
        <mxCell id="iZ19sdAexcQzZhLgs3-3-12" value="&lt;font style=&quot;font-size: 14px&quot;&gt;Номер:&lt;br&gt;&lt;/font&gt;" style="text;html=1;strokeColor=none;fillColor=none;align=left;verticalAlign=middle;whiteSpace=wrap;rounded=0;fontFamily=Times New Roman;" vertex="1" parent="1">
          <mxGeometry x="840" y="720" width="160" height="20" as="geometry" />
        </mxCell>
        <mxCell id="iZ19sdAexcQzZhLgs3-3-13" value="&lt;font style=&quot;font-size: 16px&quot;&gt;&lt;b&gt;A4&lt;/b&gt;&lt;/font&gt;" style="text;html=1;align=center;verticalAlign=middle;resizable=0;points=[];autosize=1;fontFamily=Times New Roman;" vertex="1" parent="1">
          <mxGeometry x="100" y="725" width="40" height="30" as="geometry" />
        </mxCell>
        <mxCell id="iZ19sdAexcQzZhLgs3-3-14" value="&lt;font style=&quot;font-size: 16px&quot;&gt;&lt;b&gt;6&lt;/b&gt;&lt;/font&gt;" style="text;html=1;align=center;verticalAlign=middle;resizable=0;points=[];autosize=1;fontFamily=Times New Roman;" vertex="1" parent="1">
          <mxGeometry x="965" y="725" width="30" height="30" as="geometry" />
        </mxCell>
        <mxCell id="iZ19sdAexcQzZhLgs3-3-15" value="&lt;span style=&quot;font-size: 14px;&quot;&gt;&lt;b&gt;Разработать руководство оператора&lt;/b&gt;&lt;/span&gt;" style="text;html=1;align=center;verticalAlign=middle;resizable=0;points=[];autosize=1;fontFamily=Times New Roman;" vertex="1" parent="1">
          <mxGeometry x="395" y="730" width="250" height="30" as="geometry" />
        </mxCell>
        <mxCell id="iZ19sdAexcQzZhLgs3-3-17" value="&lt;font style=&quot;font-size: 14px;&quot;&gt;Разработать структуру и основные разделы руководства&lt;/font&gt;" style="rounded=0;whiteSpace=wrap;html=1;fontFamily=Times New Roman;" vertex="1" parent="1">
          <mxGeometry x="270" y="200" width="150" height="90" as="geometry" />
        </mxCell>
        <mxCell id="iZ19sdAexcQzZhLgs3-3-18" value="&lt;span style=&quot;font-size: 14px;&quot;&gt;A41&lt;/span&gt;" style="text;html=1;strokeColor=none;fillColor=none;align=center;verticalAlign=middle;whiteSpace=wrap;rounded=0;fontFamily=Times New Roman;" vertex="1" parent="1">
          <mxGeometry x="380" y="270" width="40" height="20" as="geometry" />
        </mxCell>
        <mxCell id="iZ19sdAexcQzZhLgs3-3-21" value="&lt;font style=&quot;font-size: 14px;&quot;&gt;Программист&lt;/font&gt;" style="text;html=1;strokeColor=none;fillColor=none;align=center;verticalAlign=middle;whiteSpace=wrap;rounded=0;fontFamily=Times New Roman;" vertex="1" parent="1">
          <mxGeometry x="541" y="650" width="100" height="30" as="geometry" />
        </mxCell>
        <mxCell id="iZ19sdAexcQzZhLgs3-3-26" value="&lt;font style=&quot;font-size: 14px;&quot;&gt;Стандарт языка C++ 17 ISO/IEC&lt;/font&gt;" style="text;html=1;strokeColor=none;fillColor=none;align=center;verticalAlign=middle;whiteSpace=wrap;rounded=0;fontFamily=Times New Roman;" vertex="1" parent="1">
          <mxGeometry x="440" y="50" width="285" height="40" as="geometry" />
        </mxCell>
        <mxCell id="iZ19sdAexcQzZhLgs3-3-27" value="" style="endArrow=none;html=1;rounded=0;fontFamily=Times New Roman;" edge="1" parent="1">
          <mxGeometry width="50" height="50" relative="1" as="geometry">
            <mxPoint x="40" y="40" as="sourcePoint" />
            <mxPoint x="1120" y="40" as="targetPoint" />
          </mxGeometry>
        </mxCell>
        <mxCell id="iZ19sdAexcQzZhLgs3-3-28" value="" style="endArrow=none;html=1;rounded=0;fontFamily=Times New Roman;" edge="1" parent="1">
          <mxGeometry width="50" height="50" relative="1" as="geometry">
            <mxPoint x="30" y="30" as="sourcePoint" />
            <mxPoint x="1130" y="30" as="targetPoint" />
          </mxGeometry>
        </mxCell>
        <mxCell id="iZ19sdAexcQzZhLgs3-3-30" value="&lt;font style=&quot;font-size: 14px;&quot;&gt;Составить инструкции для работы с мультимножествами&lt;/font&gt;" style="rounded=0;whiteSpace=wrap;html=1;fontFamily=Times New Roman;" vertex="1" parent="1">
          <mxGeometry x="515" y="310" width="130" height="115" as="geometry" />
        </mxCell>
        <mxCell id="iZ19sdAexcQzZhLgs3-3-31" value="" style="endArrow=classic;html=1;rounded=1;strokeColor=#FF0000;align=center;verticalAlign=middle;fontFamily=Times New Roman;fontSize=11;fontColor=default;labelBackgroundColor=default;edgeStyle=orthogonalEdgeStyle;entryX=0.5;entryY=0;entryDx=0;entryDy=0;exitX=0.5;exitY=1;exitDx=0;exitDy=0;" edge="1" parent="1" source="iZ19sdAexcQzZhLgs3-3-26" target="iZ19sdAexcQzZhLgs3-3-17">
          <mxGeometry width="50" height="50" relative="1" as="geometry">
            <mxPoint x="733.5" y="170" as="sourcePoint" />
            <mxPoint x="721" y="200" as="targetPoint" />
          </mxGeometry>
        </mxCell>
        <mxCell id="iZ19sdAexcQzZhLgs3-3-32" value="&lt;font style=&quot;font-size: 14px;&quot;&gt;А42&lt;/font&gt;" style="text;html=1;strokeColor=none;fillColor=none;align=center;verticalAlign=middle;whiteSpace=wrap;rounded=0;fontFamily=Times New Roman;" vertex="1" parent="1">
          <mxGeometry x="605" y="405" width="40" height="20" as="geometry" />
        </mxCell>
        <mxCell id="iZ19sdAexcQzZhLgs3-3-33" style="edgeStyle=orthogonalEdgeStyle;shape=connector;rounded=1;orthogonalLoop=1;jettySize=auto;html=1;exitX=1;exitY=0.5;exitDx=0;exitDy=0;entryX=0;entryY=0.75;entryDx=0;entryDy=0;strokeColor=default;align=center;verticalAlign=middle;fontFamily=Times New Roman;fontSize=11;fontColor=default;labelBackgroundColor=default;endArrow=classic;strokeWidth=1;" edge="1" parent="1" source="iZ19sdAexcQzZhLgs3-3-38" target="iZ19sdAexcQzZhLgs3-3-17">
          <mxGeometry relative="1" as="geometry" />
        </mxCell>
        <mxCell id="iZ19sdAexcQzZhLgs3-3-34" value="&lt;font style=&quot;font-size: 14px;&quot;&gt;ТЗ для руководства оператора&lt;/font&gt;" style="text;html=1;align=center;verticalAlign=middle;whiteSpace=wrap;rounded=0;fontFamily=Times New Roman;fontSize=11;fontColor=default;labelBackgroundColor=none;" vertex="1" parent="1">
          <mxGeometry x="60" y="170" width="110" height="50" as="geometry" />
        </mxCell>
        <mxCell id="iZ19sdAexcQzZhLgs3-3-35" value="" style="endArrow=none;html=1;rounded=1;strokeColor=default;align=center;verticalAlign=middle;fontFamily=Times New Roman;fontSize=11;fontColor=default;labelBackgroundColor=default;edgeStyle=isometricEdgeStyle;strokeWidth=0.5;entryX=0.25;entryY=1;entryDx=0;entryDy=0;" edge="1" parent="1">
          <mxGeometry width="50" height="50" relative="1" as="geometry">
            <mxPoint x="440" y="254" as="sourcePoint" />
            <mxPoint x="469.62" y="224" as="targetPoint" />
          </mxGeometry>
        </mxCell>
        <mxCell id="iZ19sdAexcQzZhLgs3-3-36" value="&lt;span style=&quot;font-size: 14px;&quot;&gt;Структура руководства&lt;/span&gt;" style="text;html=1;align=center;verticalAlign=middle;whiteSpace=wrap;rounded=0;fontFamily=Times New Roman;fontSize=11;fontColor=default;labelBackgroundColor=none;" vertex="1" parent="1">
          <mxGeometry x="440" y="180" width="80" height="50" as="geometry" />
        </mxCell>
        <mxCell id="iZ19sdAexcQzZhLgs3-3-42" style="edgeStyle=orthogonalEdgeStyle;shape=connector;rounded=1;orthogonalLoop=1;jettySize=auto;html=1;exitX=1;exitY=0.5;exitDx=0;exitDy=0;entryX=0;entryY=0.5;entryDx=0;entryDy=0;strokeColor=default;strokeWidth=1;align=center;verticalAlign=middle;fontFamily=Times New Roman;fontSize=11;fontColor=default;labelBackgroundColor=default;endArrow=classic;" edge="1" parent="1" source="iZ19sdAexcQzZhLgs3-3-38" target="iZ19sdAexcQzZhLgs3-3-30">
          <mxGeometry relative="1" as="geometry" />
        </mxCell>
        <mxCell id="iZ19sdAexcQzZhLgs3-3-38" value="&lt;div&gt;&lt;span style=&quot;font-size: 14px;&quot;&gt;Дополненный функциями операций класс мультимножества&lt;/span&gt;&lt;/div&gt;" style="text;html=1;align=center;verticalAlign=middle;whiteSpace=wrap;rounded=0;fontFamily=Times New Roman;fontSize=11;fontColor=default;labelBackgroundColor=none;" vertex="1" parent="1">
          <mxGeometry x="60" y="420" width="110" height="50" as="geometry" />
        </mxCell>
        <mxCell id="iZ19sdAexcQzZhLgs3-3-39" style="edgeStyle=orthogonalEdgeStyle;shape=connector;rounded=1;orthogonalLoop=1;jettySize=auto;html=1;exitX=1;exitY=0.5;exitDx=0;exitDy=0;entryX=-0.007;entryY=0.142;entryDx=0;entryDy=0;entryPerimeter=0;strokeColor=default;align=center;verticalAlign=middle;fontFamily=Times New Roman;fontSize=11;fontColor=default;labelBackgroundColor=default;endArrow=classic;strokeWidth=2;" edge="1" parent="1" source="iZ19sdAexcQzZhLgs3-3-34" target="iZ19sdAexcQzZhLgs3-3-17">
          <mxGeometry relative="1" as="geometry" />
        </mxCell>
        <mxCell id="iZ19sdAexcQzZhLgs3-3-40" value="&lt;span style=&quot;font-size: 14px;&quot;&gt;Класс, описывающий структуру мультимножества&lt;/span&gt;" style="text;html=1;align=center;verticalAlign=middle;whiteSpace=wrap;rounded=0;fontFamily=Times New Roman;fontSize=11;fontColor=default;labelBackgroundColor=none;" vertex="1" parent="1">
          <mxGeometry x="965" y="310" width="90" height="70" as="geometry" />
        </mxCell>
        <mxCell id="iZ19sdAexcQzZhLgs3-3-43" value="&lt;div&gt;&lt;span style=&quot;font-size: 14px;&quot;&gt;Оформить руководство и включить примеры работы приложения&lt;/span&gt;&lt;/div&gt;" style="rounded=0;whiteSpace=wrap;html=1;fontFamily=Times New Roman;" vertex="1" parent="1">
          <mxGeometry x="760" y="220" width="150" height="90" as="geometry" />
        </mxCell>
        <mxCell id="iZ19sdAexcQzZhLgs3-3-44" value="&lt;span style=&quot;font-size: 14px;&quot;&gt;A43&lt;/span&gt;" style="text;html=1;strokeColor=none;fillColor=none;align=center;verticalAlign=middle;whiteSpace=wrap;rounded=0;fontFamily=Times New Roman;" vertex="1" parent="1">
          <mxGeometry x="870" y="290" width="40" height="20" as="geometry" />
        </mxCell>
      </root>
    </mxGraphModel>
  </diagram>
</mxfile>
